<?xml version="1.0" encoding="UTF-8"?>
<svg xmlns="http://www.w3.org/2000/svg" xmlns:xlink="http://www.w3.org/1999/xlink" width="455pt" height="510.2pt" viewBox="0 0 455 510.2" version="1.1">
<defs>
<clipPath id="clip1">
  <path d="M 0 331 L 440 331 L 440 510.199219 L 0 510.199219 Z M 0 331 "/>
</clipPath>
</defs>
<g id="surface1">
<path style=" stroke:none;fill-rule:evenodd;fill:rgb(15.696716%,29.026794%,52.929688%);fill-opacity:1;" d="M 12.722656 133.859375 C 62.632813 172.242188 108.160156 182.398438 143.222656 158.023438 C 118.410156 206.359375 112.933594 271.445313 126.789063 353.289063 C 121.570313 260.761719 74.683594 192.855469 12.722656 133.859375 Z M 91.746094 61.816406 C 114.371094 61.816406 132.816406 80.265625 132.816406 102.886719 C 132.816406 125.503906 114.371094 143.953125 91.746094 143.953125 C 69.132813 143.953125 50.683594 125.503906 50.683594 102.886719 C 50.683594 80.265625 69.132813 61.816406 91.746094 61.816406 Z M 91.746094 61.816406 "/>
<path style=" stroke:none;fill-rule:evenodd;fill:rgb(0%,59.959412%,20.384216%);fill-opacity:1;" d="M 312.191406 42.3125 C 237.410156 83.753906 150.660156 155.960938 133.550781 264.519531 C 133.507813 261.273438 133.492188 258.019531 133.539063 254.753906 C 135.511719 124.046875 235.386719 44.980469 318.886719 -0.078125 L 312.195313 42.3125 Z M 135.53125 359.777344 C 146.585938 302.101563 202.128906 245.566406 316.714844 190.546875 L 370.472656 211.449219 C 271.078125 238.753906 181.734375 276.617188 135.53125 359.777344 Z M 135.53125 324.933594 C 152.789063 209.128906 307.421875 129.152344 374.453125 106.921875 L 455.089844 132.804688 C 260.304688 160.015625 190.949219 249.941406 135.53125 324.933594 Z M 133.585938 291.4375 C 152.691406 167.960938 267.976563 90.632813 384.410156 19.316406 L 364.496094 90.992188 C 249.078125 132.121094 172.019531 205.183594 133.585938 291.4375 Z M 133.585938 291.4375 "/>
<g clip-path="url(#clip1)" clip-rule="nonzero">
<path style=" stroke:none;fill-rule:evenodd;fill:rgb(97.264099%,76.5625%,0.392151%);fill-opacity:1;" d="M 0 331.601563 C 12.769531 363.601563 38.863281 386.878906 90.011719 386.878906 C 133.746094 386.878906 174.664063 363.601563 187.363281 331.601563 L 223.070313 331.601563 C 217.21875 334.132813 212.726563 338.234375 210.652344 342.574219 C 197.304688 370.503906 169.984375 393.839844 133.40625 400.839844 C 185.492188 400.714844 229.191406 371.011719 239.796875 331.601563 L 275.808594 331.601563 C 266.050781 338.234375 256.621094 347.675781 255.734375 353.261719 C 249.03125 395.527344 214.078125 422.078125 168.273438 432.65625 C 232.585938 431.511719 269.789063 398.589844 278.984375 353.867188 C 280.171875 348.089844 284.15625 337.214844 291.578125 331.601563 L 324.414063 331.601563 C 317.433594 337.046875 310.03125 344.335938 309.410156 352.585938 C 305.566406 403.855469 262.367188 446.027344 204.886719 456.191406 C 269.445313 454.007813 326.34375 412.09375 334.359375 358.222656 C 335.5625 350.152344 339.570313 339.339844 344.730469 331.601563 L 380.535156 331.601563 C 371.941406 337.128906 363.800781 344.628906 363.800781 351.210938 C 361.183594 406.324219 313.3125 459.789063 242.269531 480.144531 C 324.949219 474.097656 386.214844 416.460938 390.953125 353.3125 C 391.449219 346.734375 394.699219 339.351563 400.085938 331.601563 L 439.5625 331.601563 C 423.019531 339.117188 422.910156 346.355469 421.453125 353.730469 C 403.460938 445.085938 325.246094 510.15625 213.203125 510.15625 C 106.398438 510.15625 17.253906 432.726563 0 331.601563 Z M 0 331.601563 "/>
</g>
</g>
</svg>
